# xmcd
#
# Track frame offsets:
#	150
#	19722
#	35724
#	54255
#	73656
#	99450
#	118446
#	134919
#	153274
#	169120
#
# Disc length: 2797 seconds
#
# Revision: 0
# Processed by: cddbd v1.5.2PL0 Copyright (c) Steve Scherf et al.
# Submitted via: dBpowerAMP V4.0
#
DISCID=8d0aeb0a
DTITLE=Tito Sierra - La Nueva Ley
DYEAR=1900
DGENRE=salsa
TTITLE0=La Ley Del Timbal
TTITLE1=Un Poquito Loco
TTITLE2=Termometro De Amor
TTITLE3=Adentro De Tu Corazon
TTITLE4=Silver Trail Mambo
TTITLE5=El Infiel
TTITLE6=Amarte a Escondidas
TTITLE7=Desesperado
TTITLE8=Desesperado ( Bolero )
TTITLE9=Rumba Pa Glen
EXTD=submitted By Filipe , salsaholics.org  , Silver Trail Mambo is one of the hottest tracks and a current favourite on the Scottish salsa scene at the moment.
EXTT0=
EXTT1=
EXTT2=
EXTT3=
EXTT4=
EXTT5=
EXTT6=
EXTT7=
EXTT8=
EXTT9=
PLAYORDER=
